<?xml version="1.0" encoding="utf-8"?>
<!-- Generator: Adobe Illustrator 16.0.0, SVG Export Plug-In . SVG Version: 6.00 Build 0)  -->
<!DOCTYPE svg PUBLIC "-//W3C//DTD SVG 1.1//EN" "http://www.w3.org/Graphics/SVG/1.1/DTD/svg11.dtd">
<svg version="1.1" id="Calque_1" xmlns="http://www.w3.org/2000/svg" xmlns:xlink="http://www.w3.org/1999/xlink" x="0px" y="0px"
	 width="150px" height="150px" viewBox="0 0 150 150" enable-background="new 0 0 150 150" xml:space="preserve">
<g>
	<path fill="#6DC6D9" d="M49.441,92.013c-3.109,2.706-7.407,4.059-12.895,4.059c-5.565,0-9.873-1.343-12.924-4.029
		c-3.051-2.687-4.577-6.831-4.577-12.435V54.047h9.038v25.561c0,1.113,0.096,2.207,0.288,3.281c0.191,1.074,0.595,2.024,1.209,2.85
		c0.613,0.825,1.468,1.496,2.562,2.015s2.562,0.777,4.404,0.777c3.224,0,5.449-0.72,6.678-2.159
		c1.228-1.439,1.842-3.693,1.842-6.764V54.047h9.038v25.561C54.104,85.172,52.55,89.308,49.441,92.013z"/>
	<path fill="#6DC6D9" d="M79.606,54.047c2.648,0,5.113,0.423,7.397,1.267c2.283,0.845,4.26,2.111,5.93,3.799
		c1.669,1.689,2.974,3.8,3.914,6.333c0.94,2.533,1.411,5.508,1.411,8.923c0,2.994-0.385,5.757-1.151,8.29
		c-0.769,2.533-1.929,4.721-3.483,6.562c-1.554,1.843-3.492,3.291-5.814,4.347s-5.057,1.583-8.203,1.583H61.875V54.047H79.606z
		 M78.974,87.552c1.304,0,2.57-0.211,3.799-0.634c1.228-0.422,2.322-1.122,3.281-2.101c0.959-0.979,1.728-2.255,2.303-3.829
		c0.576-1.573,0.864-3.491,0.864-5.756c0-2.072-0.202-3.943-0.604-5.613c-0.403-1.669-1.065-3.099-1.986-4.289
		c-0.921-1.189-2.14-2.101-3.655-2.734c-1.517-0.633-3.388-0.95-5.613-0.95h-6.448v25.906H78.974z"/>
	<path fill="#6DC6D9" d="M133.432,54.047v7.599h-19.86v9.499h17.212v7.023h-17.212V95.15h-9.038V54.047H133.432z"/>
</g>
</svg>
